<?xml version="1.0" encoding="UTF-8" standalone="no"?><!DOCTYPE svg PUBLIC "-//W3C//DTD SVG 1.1//EN" "http://www.w3.org/Graphics/SVG/1.1/DTD/svg11.dtd"><svg width="100%" height="100%" viewBox="0 0 4863 1367" version="1.1" xmlns="http://www.w3.org/2000/svg" xmlns:xlink="http://www.w3.org/1999/xlink" xml:space="preserve" xmlns:serif="http://www.serif.com/" style="fill-rule:evenodd;clip-rule:evenodd;stroke-linejoin:round;stroke-miterlimit:2;"><g><g id="PALIGO_-_sharp_3_"><g><path d="M3314.58,303.75l51.667,-152.5c5.417,-16.25 -6.667,-33.333 -24.167,-33.333l-128.75,-0c-16.25,-0 -30.833,10.416 -35.833,25.833l-50.833,149.583c-5.417,16.25 6.666,33.334 23.75,33.334l132.916,-0c14.167,-0.417 26.667,-9.584 31.25,-22.917Z" style="fill:#cc1517;fill-rule:nonzero;"/><path d="M3551.25,303.75l51.667,-152.5c5.416,-16.25 -6.667,-33.333 -23.75,-33.333l-129.167,-0c-16.25,-0 -30.833,10.416 -35.833,25.833l-50.834,149.583c-5.416,16.25 6.667,32.917 23.75,32.917l132.917,0c14.167,0 26.667,-9.167 31.25,-22.5Z" style="fill:#cc1517;fill-rule:nonzero;"/><path d="M3787.92,303.75l51.666,-152.917c5.417,-16.25 -6.666,-33.333 -23.75,-33.333l-129.166,0c-16.25,0 -30.417,10.417 -35.417,25.417l-50.833,150c-5.417,16.25 6.666,32.916 23.75,32.916l132.916,0c13.75,0.417 26.25,-8.75 30.834,-22.083Z" style="fill:#cc1517;fill-rule:nonzero;"/><path d="M3628.33,774.167l48.75,-143.75c5.417,-16.25 -6.666,-32.917 -23.75,-32.917l-129.583,0c-16.25,0 -30.417,10.417 -35.833,25.417l-47.5,140.416c-5.417,16.25 6.666,32.917 23.75,32.917l132.5,-0c14.583,0.417 27.083,-8.75 31.666,-22.083Z" style="fill:#cc1517;fill-rule:nonzero;"/><path d="M3707.5,541.25l48.333,-142.083c5.417,-16.25 -6.666,-33.334 -24.166,-33.334l-129.167,0c-16.25,0 -30.417,10.417 -35.833,25.417l-47.084,139.583c-5.416,16.25 6.667,32.917 23.75,32.917l132.917,0c14.167,0 26.667,-9.167 31.25,-22.5Z" style="fill:#cc1517;fill-rule:nonzero;"/><path d="M1232.92,139.583l-523.75,615.834c-13.75,16.25 -2.084,41.25 19.166,41.25l344.167,-0c20,-0 37.917,-12.917 44.583,-32.084l17.5,-50.833l-174.166,0c-14.584,0 -22.084,-16.667 -12.917,-27.917l380.833,-447.916c5.417,-6.25 15,-0.417 12.5,7.083l-174.166,518.333c-5.417,16.25 6.666,33.334 24.166,33.334l98.75,-0c14.167,-0 26.667,-8.75 30.834,-22.084l210.416,-623.333c5.417,-16.25 -6.666,-32.917 -23.75,-32.917l-226.666,0c-18.334,-0.416 -35.834,7.5 -47.5,21.25Z" style="fill:#cc1517;fill-rule:nonzero;"/></g><g><path d="M3152.08,683.333l96.25,-284.583c5.417,-16.25 -6.666,-33.333 -23.75,-33.333l-95,-0c-16.25,-0 -30.833,10.416 -36.25,25.833l-125.416,372.083c-5.417,16.25 6.666,32.917 23.75,32.917l368.333,0c14.167,0 27.083,-9.167 31.25,-22.5l20,-60l-237.5,0c-15.417,0 -26.667,-15.417 -21.667,-30.417Z" style="fill:#cc1517;fill-rule:nonzero;"/><path d="M2419.58,143.333l-209.166,620c-5.417,16.25 6.666,33.334 23.75,33.334l417.083,-0c15.833,-0 27.083,15.833 22.083,30.833l-36.666,108.75c-5.834,17.083 -22.084,28.75 -40.417,28.75l-432.5,0c-12.083,0 -22.917,7.5 -26.667,19.167l-13.333,37.916c-4.167,11.667 4.583,24.167 17.083,24.167l581.667,0c20.417,0 38.333,-12.917 45,-32.083l291.667,-862.917c5.416,-16.25 -6.667,-33.333 -23.75,-33.333l-580.417,-0c-16.25,-0 -30.417,10 -35.417,25.416Zm260.834,570.417l-263.334,0c-16.25,0 -27.916,-16.25 -22.5,-31.667l156.25,-462.5c4.584,-13.333 17.084,-22.083 30.834,-22.083l270.416,0c16.25,0 27.917,16.25 22.917,31.667l-154.167,455.833c-5.833,17.083 -22.083,28.75 -40.416,28.75Z" style="fill:#cc1517;fill-rule:nonzero;"/><path d="M2089.58,774.167l210.834,-625c5.416,-15.417 -6.25,-31.25 -22.5,-31.25l-97.5,-0c-16.25,-0 -30.417,10.416 -35.417,25.416l-209.167,620.417c-5.416,16.25 6.667,32.917 23.75,32.917l98.75,-0c14.167,-0 26.667,-9.167 31.25,-22.5Z" style="fill:#cc1517;fill-rule:nonzero;"/><path d="M1625,682.917l180,-531.667c5.417,-16.25 -6.667,-33.333 -24.167,-33.333l-95,-0c-16.25,-0 -30.833,10.416 -35.833,25.833l-209.167,619.583c-5.416,16.25 6.667,33.334 24.167,33.334l365,-0c20,-0 37.917,-12.917 44.583,-31.667l17.5,-50.833l-244.583,-0c-16.25,-0.417 -27.5,-16.25 -22.5,-31.25Z" style="fill:#cc1517;fill-rule:nonzero;"/><path d="M837.083,520l125,-369.167c5.417,-16.25 -6.666,-33.333 -24.166,-33.333l-565.834,0c-20.416,0 -38.75,12.917 -45,32.5l-208.333,616.667c-5,14.583 5.833,30 21.667,30l101.666,-0c14.167,-0 27.084,-9.167 31.667,-22.5l65,-193.334c4.583,-13.333 17.083,-22.5 31.25,-22.5l414.167,0c24.166,-0.416 45.416,-15.416 52.916,-38.333Zm-345.416,-322.083l264.166,-0c16.25,-0 27.5,15.833 22.084,30.833l-74.167,219.167c-5.833,17.083 -22.083,28.75 -40,28.75l-257.083,-0c-16.25,-0 -27.5,-15.834 -22.5,-31.25l75.833,-225.417c4.583,-12.917 17.5,-22.083 31.667,-22.083Z" style="fill:#cc1517;fill-rule:nonzero;"/></g></g></g></svg>